<?xml version="1.0" standalone="no"?>
<!DOCTYPE svg PUBLIC "-//W3C//DTD SVG 20010904//EN"
 "http://www.w3.org/TR/2001/REC-SVG-20010904/DTD/svg10.dtd">
<svg version="1.0" xmlns="http://www.w3.org/2000/svg"
 width="1250.000000pt" height="1096.000000pt" viewBox="0 0 1250.000000 1096.000000"
 preserveAspectRatio="xMidYMid meet">
<metadata>
Created by potrace 1.16, written by Peter Selinger 2001-2019
</metadata>
<g transform="translate(0.000000,1096.000000) scale(0.100000,-0.100000)"
fill="#000000" stroke="none">
<path d="M9130 7245 l0 -1425 219 0 220 0 4 638 c3 556 5 645 20 700 65 244
245 382 497 382 248 0 421 -136 486 -381 15 -56 18 -140 21 -701 l4 -638 220
0 220 0 -3 718 -4 717 -27 99 c-78 289 -230 459 -488 548 -92 32 -98 32 -269
33 -136 0 -189 -4 -240 -18 -150 -40 -316 -149 -390 -256 -19 -27 -38 -50 -42
-51 -5 0 -8 239 -8 530 l0 530 -220 0 -220 0 0 -1425z"/>
<path d="M7920 8170 l0 -270 -145 0 -145 0 0 -175 0 -175 144 0 145 0 4 -677
c3 -590 5 -685 20 -732 52 -174 164 -281 340 -328 133 -36 359 -18 467 37 l40
20 0 180 0 179 -42 -16 c-27 -10 -78 -16 -138 -17 -101 -1 -151 15 -193 62
-45 50 -46 65 -47 695 l0 597 210 0 210 0 0 175 0 175 -210 0 -210 0 0 270 0
270 -225 0 -225 0 0 -270z"/>
<path d="M2365 7925 c-187 -41 -357 -150 -449 -289 l-26 -39 0 152 0 151 -220
0 -220 0 0 -1040 0 -1040 220 0 220 0 0 623 c0 692 1 704 66 835 83 169 240
262 444 262 240 0 403 -115 479 -338 l26 -77 3 -652 3 -653 224 0 225 0 0 629
c0 368 -4 672 -11 732 -40 399 -234 650 -565 735 -80 20 -120 24 -228 23 -72
0 -158 -7 -191 -14z"/>
<path d="M4538 7921 c-259 -57 -456 -170 -615 -355 -171 -200 -252 -452 -240
-755 11 -288 96 -503 274 -691 140 -147 317 -252 518 -305 123 -33 336 -44
466 -25 476 69 834 418 904 880 90 588 -228 1090 -782 1237 -135 36 -393 42
-525 14z m359 -396 c198 -38 377 -176 456 -352 47 -105 61 -177 61 -313 0
-216 -52 -349 -189 -488 -68 -67 -98 -89 -166 -121 -113 -52 -175 -66 -294
-65 -121 1 -201 21 -310 77 -155 80 -278 241 -320 417 -19 85 -19 275 1 360
80 342 410 552 761 485z"/>
<path d="M7110 7924 c-214 -56 -382 -226 -466 -474 l-19 -55 -3 253 -2 252
-220 0 -220 0 0 -1040 0 -1040 220 0 220 0 0 498 c0 613 7 685 85 847 113 234
362 372 632 351 l83 -6 0 209 c0 208 0 209 -22 215 -43 11 -233 5 -288 -10z"/>
<path d="M3367 5153 c-4 -3 -7 -645 -7 -1425 l0 -1418 220 0 220 0 0 1425 0
1425 -213 0 c-118 0 -217 -3 -220 -7z"/>
<path d="M4964 4420 c-77 -14 -211 -59 -279 -93 -259 -130 -440 -356 -521
-652 -27 -95 -28 -110 -28 -325 0 -212 2 -231 26 -322 49 -180 134 -335 252
-457 89 -92 167 -148 287 -205 138 -67 226 -87 400 -93 162 -6 257 7 378 53
142 53 301 174 359 273 l27 46 3 -167 2 -168 220 0 220 0 0 1040 0 1040 -220
0 -220 0 -2 -167 -3 -168 -25 40 c-81 132 -242 243 -437 301 -75 23 -111 27
-238 30 -82 1 -173 -1 -201 -6z m461 -420 c112 -35 183 -78 265 -160 126 -126
179 -254 187 -456 10 -223 -49 -388 -186 -525 -138 -137 -298 -196 -505 -186
-182 8 -311 64 -435 188 -177 175 -237 480 -146 742 54 157 162 280 309 353
50 24 120 51 156 59 92 21 264 14 355 -15z"/>
<path d="M7660 4415 c-94 -19 -191 -58 -268 -108 -63 -41 -157 -131 -194 -187
-16 -24 -17 -19 -17 123 l-1 147 -225 0 -225 0 0 -1040 0 -1040 225 0 224 0 3
658 3 657 25 70 c51 147 161 260 297 306 96 34 279 34 368 1 127 -47 229 -146
275 -270 46 -121 49 -170 50 -814 l0 -608 220 0 221 0 -4 723 c-3 710 -3 723
-25 807 -83 315 -292 519 -590 576 -90 17 -274 17 -362 -1z"/>
<path d="M9813 4416 c-402 -76 -710 -363 -808 -751 -128 -502 56 -1007 452
-1240 179 -106 321 -146 548 -152 243 -8 430 35 610 137 79 46 205 147 241
195 l22 30 -102 109 -101 109 -69 -52 c-152 -115 -302 -162 -516 -162 -146 0
-238 20 -360 78 -165 79 -288 228 -333 406 l-15 57 818 0 817 0 7 38 c11 67 6
265 -9 362 -34 231 -116 399 -268 557 -120 125 -273 212 -456 260 -119 32
-361 41 -478 19z m372 -383 c222 -54 393 -231 429 -444 l12 -74 -619 -3 c-341
-1 -622 0 -624 2 -9 8 22 106 57 181 46 101 104 173 183 232 160 118 360 156
562 106z"/>
</g>
</svg>
