<?xml version="1.0" encoding="utf-8"?>
<!-- Generator: Adobe Illustrator 19.1.0, SVG Export Plug-In . SVG Version: 6.00 Build 0)  -->
<svg version="1.1" id="Layer_1" xmlns="http://www.w3.org/2000/svg" xmlns:xlink="http://www.w3.org/1999/xlink" x="0px" y="0px"
	 viewBox="0 0 200 200" style="enable-background:new 0 0 200 200;" xml:space="preserve">
<style type="text/css">
	.st0{fill:#FFFFFF;}
</style>
<path class="st0" d="M200,100C200,44.8,155.2,0,100,0S0,44.8,0,100c0,55.2,44.8,100,100,100S200,155.2,200,100L200,100z M47.2,113.6
	l12.4-10.5c3.9,7,8.5,14.1,13.2,17.6c11.6,9.7,27.9,10.6,38.8,30.8c0,0-8.5,8.8-9.3,13.2c-10.9-22.9-29.5-24.6-41.2-34.3
	C56.5,126.8,53.4,118.9,47.2,113.6L47.2,113.6z M126.1,92.1c9.1,4.7,18.8,9.5,26.7,23.3l-8.5,7c-11.6-20.2-27.2-20.2-39.6-29.9
	c-4.7-3.5-7.8-12.3-14-16.7l8.5-7.9c5.4,3.5,10.1,13.2,14.8,16.7c0.9,0.8,1.9,1.5,2.9,2.2l8.8-7.4c-0.8-0.9-2.3-1.8-3.1-1.8
	c-7-6.2-13.2-22-23.3-26.4L71.3,74c10.9,7.9,16.3,22,23.3,27.3c12.4,9.7,27.9,10.6,39.6,29.9l-11.6,10.5
	c-11.6-20.2-27.2-21.1-38.8-30.8c-9.3-7-14-27.3-33.4-33.4L87.6,45c6.2-4.4,9.3-9.7,9.3-9.7c21,5.3,25.6,26.4,34.9,34.3
	c3.9,2.6,8.5,5.3,13.2,7l-17.9,15.8C126.8,92.4,126.4,92.2,126.1,92.1L126.1,92.1z"/>
</svg>
