<?xml version="1.0" encoding="utf-8"?>
<!-- Generator: Adobe Illustrator 23.0.4, SVG Export Plug-In . SVG Version: 6.00 Build 0)  -->
<svg version="1.1" id="Layer_1" xmlns="http://www.w3.org/2000/svg" xmlns:xlink="http://www.w3.org/1999/xlink" x="0px" y="0px"
	 viewBox="0 0 200 200" style="enable-background:new 0 0 200 200;" xml:space="preserve">
<style type="text/css">
	.st0{fill:#FFFFFF;}
</style>
<path class="st0" d="M100,0C44.77,0,0,44.77,0,100c0,55.23,44.77,100,100,100c55.23,0,100-44.77,100-100C200,44.77,155.23,0,100,0z
	 M148.84,118.32c-19.97,60.86-87.08,66.96-100.24-14.31l-8.01,0.58c-6.52,0.47-6.77-5.03-6.77-8.09c0-6.05,2.24-8.21,6.28-8.21
	h31.39c3.08,0,5.4,0.97,6.31,5.34c1.02,4.86,0.6,8.24-4.87,8.63l-9.86,0.7c7.25,45.84,49.67,60.78,72.76,11.41
	c3.82-8.17,5.07-9.66,9.26-8.62C150.77,107.16,151.55,110.08,148.84,118.32z M154.24,82.16c-6.43,0-11.65-5.22-11.65-11.65
	c0-6.44,5.22-11.65,11.65-11.65c6.44,0,11.65,5.22,11.65,11.65C165.9,76.94,160.68,82.16,154.24,82.16z"/>
</svg>
