<?xml version="1.0" encoding="utf-8"?>
<!-- Generator: Adobe Illustrator 19.1.0, SVG Export Plug-In . SVG Version: 6.00 Build 0)  -->
<svg version="1.1" id="Layer_1" xmlns="http://www.w3.org/2000/svg" xmlns:xlink="http://www.w3.org/1999/xlink" x="0px" y="0px"
	 viewBox="0 0 200 200" style="enable-background:new 0 0 200 200;" xml:space="preserve">
<style type="text/css">
	.st0{fill:#FFFFFF;}
	.st1{fill:#245A9E;}
</style>
<path class="st0" d="M200,100c0,55.2-44.8,100-100,100C44.8,200,0,155.2,0,100C0,44.8,44.8,0,100,0C155.2,0,200,44.8,200,100
	L200,100z"/>
<path class="st1" d="M100.2,41.5c6.1,6,12.9,12.3,18.9,18.5l-6.9,9v0.4l18.3,8.3l12.4-8.6l-7.5-8.4v-0.6
	c7.7-5.5,14.2-10.8,21.7-15.8l-3.6,37.7H46.5L43,44.3c7.4,5.1,14,10.4,21.7,15.8v0.6l-7.5,8.4l12.4,8.6l18.3-8.3V69l-6.9-9
	c5.9-6.2,12.7-12.5,18.8-18.5H100.2L100.2,41.5z"/>
<path class="st1" d="M152.6,88.7l-1.1,12.6l-39.6,0l0,43.4l19.3-0.1c4.3,0,8.8-4.6,7.9-7.6c-1-4.4-4.9-7.3-8.5-9.5
	c0.7,0,13.9-9.9,20.1-14.1c-0.3,2.7-4.7,38.1-4.8,38.7l-45.7,17.6h-0.7L54,152.1c0-0.6-4.5-36-4.8-38.7c6.2,4.2,19.4,14.1,20.1,14.1
	c-3.6,2.2-7.5,5.1-8.5,9.5c-0.9,3,3.6,7.6,7.9,7.6l19.3,0.1l0-43.4l-39.6,0l-1.1-12.6H152.6L152.6,88.7z"/>
</svg>
