<?xml version="1.0" encoding="utf-8"?>
<!-- Generator: Adobe Illustrator 24.2.1, SVG Export Plug-In . SVG Version: 6.00 Build 0)  -->
<svg version="1.1" xmlns="http://www.w3.org/2000/svg" xmlns:xlink="http://www.w3.org/1999/xlink" x="0px" y="0px"
	 viewBox="0 0 405.4 152.6" style="enable-background:new 0 0 405.4 152.6;" xml:space="preserve">
<style type="text/css">
	.st0{display:none;}
	.st1{display:inline;}
	.st2{fill:#FFFFFF;}
</style>
<g id="Background" class="st0">
	<g class="st1">
		<rect width="405.4" height="152.6"/>
	</g>
</g>
<g id="Logo">
	<g>
		<g>
			<path class="st2" d="M3.8,140.6h3.7V121H3.8v-2.4h10.4c5,0,10.1,0.3,10.1,6.6c0,3.5-2,5.8-5.5,6.1v0.1c1.7,0.2,2.6,0.9,3.1,1.9
				c0.6,1,0.8,2.3,1.3,3.7l1,3.6h2.8v2.4h-5.4l-1.6-5.4c-1.3-4.4-1.7-5.2-6.3-5.2h-2.9v8.2h3.7v2.4H3.8V140.6z M10.8,130h2.7
				c3.7,0,7.3,0,7.3-4.8c0-4.2-4-4.2-7.3-4.2h-2.7V130z"/>
			<path class="st2" d="M37.2,125.6c5.5,0,8.9,3.3,8.9,8.9c0,5.6-3.4,8.9-8.9,8.9s-9.1-3.3-9.1-8.9C28.1,129,31.6,125.6,37.2,125.6z
				 M37.2,141c3.8,0,5.6-3,5.6-6.5c0-3.5-1.8-6.5-5.6-6.5c-3.8,0-5.8,3-5.8,6.5C31.4,138,33.3,141,37.2,141z"/>
			<path class="st2" d="M67.2,128.4h-1.9l-7,16.2c-1.2,2.9-2,4.9-5.5,4.9c-0.8,0-1.6-0.1-2.3-0.2V147c0.6,0,1.2,0.1,1.8,0.1
				c2.6,0,2.7-2.1,3.7-4.1l-6.6-14.6h-1.9V126h8.5v2.4h-3.3l4.9,11.4l4.8-11.4h-3.3V126h8V128.4z"/>
			<path class="st2" d="M80.8,139.5L80.8,139.5c-0.8,2.7-3.1,3.9-5.8,3.9c-3.4,0-6.7-1.5-6.7-5.3c0-5.2,5.1-5.5,9.2-5.5h3.3v-1
				c0-2.7-1.4-3.6-4.1-3.6c-2.3,0-4.2,0.5-4.4,2.9H69c0.2-3.9,3.7-5.3,7.3-5.3c4,0,7.6,0.9,7.6,5.3v9.7h3v2.4h-6V139.5z M75.4,141
				c3.8,0,5.4-2.7,5.4-6h-2.6c-2.2,0-6.6,0-6.6,3.1C71.7,140.4,73.6,141,75.4,141z"/>
			<path class="st2" d="M89,140.6H92V121H89v-2.4h6v22H98v2.4H89V140.6z"/>
			<path class="st2" d="M132.8,127.4H130c-0.4-4.4-3.1-6.7-7.3-6.7c-5.6,0-8.9,3.3-8.9,10.2c0,5.9,3,10.2,8.9,10.2
				c3.6,0,6.8-2.3,6.8-6.3h3.5c0,6.2-4.9,8.6-10.3,8.6c-8.1,0-12.4-4.7-12.4-12.6s4.2-12.6,12.4-12.6c2.2,0,5.9,1,7.3,3.4h0.1v-3
				h2.8V127.4z"/>
			<path class="st2" d="M147.9,139.5L147.9,139.5c-0.8,2.7-3.1,3.9-5.8,3.9c-3.4,0-6.7-1.5-6.7-5.3c0-5.2,5.1-5.5,9.2-5.5h3.3v-1
				c0-2.7-1.4-3.6-4.1-3.6c-2.3,0-4.2,0.5-4.4,2.9h-3.3c0.2-3.9,3.7-5.3,7.3-5.3c4,0,7.6,0.9,7.6,5.3v9.7h3v2.4h-6V139.5z
				 M142.5,141c3.8,0,5.4-2.7,5.4-6h-2.6c-2.2,0-6.6,0-6.6,3.1C138.8,140.4,140.7,141,142.5,141z"/>
			<path class="st2" d="M155.5,140.6h2.9v-12.2h-2.9V126h6v3.5h0.1c0.5-2.6,2.6-3.8,5.2-3.8c0.6,0,1,0,1.4,0.1v2.5
				c-0.5-0.1-1.1-0.2-1.8-0.2c-4.3,0-4.8,4.5-4.8,8v4.6h3.5v2.4h-9.5V140.6z"/>
			<path class="st2" d="M170.2,140.6h2.9v-12.2h-2.9V126h6v14.6h2.9v2.4h-8.9V140.6z M176.2,122.1h-3.5v-3.5h3.5V122.1z"/>
			<path class="st2" d="M181.4,140.6h3V121h-3v-2.4h6v10.5h0.1c1-2.2,3.6-3.5,5.9-3.5c5.3,0,8.4,3.4,8.4,8.9c0,5.3-3,8.9-8.4,8.9
				c-2.4,0-5.1-1.3-5.9-3.8h-0.1v3.5h-6V140.6z M193.4,141c3.2,0,5.1-2.6,5.1-6.5c0-3.4-1.8-6.5-5.1-6.5c-4.1,0-6,3.1-6,6.5
				C187.5,138.4,189.4,141,193.4,141z"/>
			<path class="st2" d="M203.1,140.6h3V121h-3v-2.4h6v10.5h0.1c1-2.2,3.6-3.5,5.9-3.5c5.3,0,8.4,3.4,8.4,8.9c0,5.3-3,8.9-8.4,8.9
				c-2.4,0-5.1-1.3-5.9-3.8h-0.1v3.5h-6V140.6z M215.1,141c3.2,0,5.1-2.6,5.1-6.5c0-3.4-1.8-6.5-5.1-6.5c-4.1,0-6,3.1-6,6.5
				C209.1,138.4,211,141,215.1,141z"/>
			<path class="st2" d="M229.3,135.4c0,3.9,2.2,5.6,6.2,5.6c1.9,0,4.6-1.1,4.8-3.3h2.8c-0.1,4.2-4.5,5.7-8.1,5.7
				c-5.5,0-9.1-3.3-9.1-8.9c0-5.6,3.5-8.9,9.1-8.9c6,0,8.2,4.3,8.2,9.7H229.3z M240.2,133c-0.2-3.1-2-5-5.4-5c-2.9,0-5.6,1.8-5.6,5
				H240.2z"/>
			<path class="st2" d="M258.5,139.5L258.5,139.5c-0.8,2.7-3.1,3.9-5.8,3.9c-3.4,0-6.7-1.5-6.7-5.3c0-5.2,5.1-5.5,9.2-5.5h3.3v-1
				c0-2.7-1.4-3.6-4.1-3.6c-2.3,0-4.2,0.5-4.4,2.9h-3.3c0.2-3.9,3.7-5.3,7.3-5.3c4,0,7.6,0.9,7.6,5.3v9.7h3v2.4h-6V139.5z
				 M253.1,141c3.8,0,5.4-2.7,5.4-6h-2.6c-2.2,0-6.6,0-6.6,3.1C249.3,140.4,251.2,141,253.1,141z"/>
			<path class="st2" d="M266,140.6h2.9v-12.2H266V126h6v3.1h0.1c0.8-2.2,3.2-3.5,5.7-3.5c4.2,0,6,2.1,6,6.2v8.8h2.9v2.4h-8.9v-2.4
				h2.9v-8.2c0-2.7-0.9-4.4-3.9-4.4c-3.3,0-4.8,2.3-4.8,5.3v7.3h2.9v2.4H266V140.6z"/>
			<path class="st2" d="M321,127.3h-2.8c-0.3-4.2-2.8-6.7-7-6.7c-5.6,0-8.9,3.3-8.9,10.2c0,5.9,3,10.2,8.9,10.2
				c4.5,0,7.2-3.3,7.2-7.6h-4.1V131h10.5v2.4h-3.3v9.6h-3.1v-3.5h-0.1c-1.4,2.2-4.4,3.8-7,3.8c-8.1,0-12.4-4.7-12.4-12.6
				s4.2-12.6,12.4-12.6c2.5,0,5.7,1.2,6.9,3.4h0.1v-3.1h2.8V127.3z"/>
			<path class="st2" d="M326.5,140.6h2.9v-12.2h-2.9V126h6v3.5h0.1c0.5-2.6,2.6-3.8,5.2-3.8c0.6,0,1,0,1.4,0.1v2.5
				c-0.5-0.1-1.1-0.2-1.8-0.2c-4.3,0-4.8,4.5-4.8,8v4.6h3.5v2.4h-9.5V140.6z"/>
			<path class="st2" d="M349.5,125.6c5.5,0,8.9,3.3,8.9,8.9c0,5.6-3.4,8.9-8.9,8.9c-5.5,0-9.1-3.3-9.1-8.9
				C340.5,129,344,125.6,349.5,125.6z M349.5,141c3.8,0,5.6-3,5.6-6.5c0-3.5-1.8-6.5-5.6-6.5c-3.8,0-5.8,3-5.8,6.5
				C343.8,138,345.7,141,349.5,141z"/>
			<path class="st2" d="M377.5,140.6h2.9v2.4h-6v-2.9h-0.1c-0.7,2.1-3.1,3.3-5.6,3.3c-4.4,0-6.2-2.2-6.2-6.2v-8.8h-2.9V126h6v10.5
				c0,2.7,0.9,4.4,3.9,4.4c3.3,0,4.8-2.2,4.8-5.3v-7.3h-2.9V126h6V140.6z"/>
			<path class="st2" d="M381.2,146.8h3v-18.4h-3V126h6v3.4h0.1c0.9-2.2,3.1-3.8,5.9-3.8c5.3,0,8.4,3.4,8.4,8.9c0,5.3-3,8.9-8.4,8.9
				c-2.6,0-4.8-1.2-5.9-3.7h-0.1v7h3v2.4h-9V146.8z M393.2,141c3.2,0,5.1-2.6,5.1-6.5c0-3.4-1.8-6.5-5.1-6.5c-4.1,0-6,3.1-6,6.5
				C387.2,138.4,389.1,141,393.2,141z"/>
		</g>
		<g>
			<g>
				<g>
					<g>
						<g>
							<path class="st2" d="M202.7,5.1c25.1,0,45.4,20.3,45.4,45.4s-20.3,45.4-45.4,45.4s-45.4-20.3-45.4-45.4S177.6,5.1,202.7,5.1
								 M202.7,3.5c-26,0-47.1,21.1-47.1,47.1s21.1,47.1,47.1,47.1s47.1-21.1,47.1-47.1S228.6,3.5,202.7,3.5L202.7,3.5z"/>
						</g>
						<g>
							<g>
								<polygon class="st2" points="213.9,32.4 217.9,36.1 212.3,41.2 206.6,36 211,31.9 202.7,24.2 194.3,31.9 198.8,36 193,41.2 
									187.4,36.1 191.4,32.4 178.4,26.2 180,43.3 225.3,43.3 227,26.2 								"/>
								<polygon class="st2" points="180.3,46 180.8,51.4 197.8,51.4 197.8,70.7 188.7,66.4 192.3,63 181.4,57.8 182.6,70 
									202.7,79.5 222.8,70 223.9,57.8 213,63 216.7,66.4 207.6,70.7 207.6,51.4 224.6,51.4 225.1,46 								"/>
							</g>
						</g>
					</g>
				</g>
			</g>
		</g>
		<g>
			<path class="st2" d="M242.3,86.3c2.2,0,3.8,1.7,3.8,3.9c0,2.2-1.6,4-3.8,4c-2.3,0-3.8-1.8-3.8-4C238.5,88,240.1,86.3,242.3,86.3z
				 M242.3,93.8c2.1,0,3.5-1.7,3.5-3.7c0-2-1.5-3.6-3.5-3.6c-2.1,0-3.5,1.5-3.5,3.6C238.8,92.2,240.2,93.8,242.3,93.8z M240.9,88.3
				h1.7c0.8,0,1.2,0.4,1.2,1.1c0,0.6-0.4,1-1,1.1l1,1.6h-0.3l-1-1.6h-1.3v1.6h-0.3V88.3z M241.3,88.5v1.7h1.4c0.6,0,0.9-0.4,0.9-0.9
				c0-0.5-0.3-0.8-0.9-0.8H241.3z"/>
		</g>
	</g>
</g>
</svg>
