<?xml version="1.0" encoding="utf-8"?>
<!-- Generator: Adobe Illustrator 23.0.4, SVG Export Plug-In . SVG Version: 6.00 Build 0)  -->
<svg version="1.1" id="Layer_1" xmlns="http://www.w3.org/2000/svg" xmlns:xlink="http://www.w3.org/1999/xlink" x="0px" y="0px"
	 viewBox="0 0 200 200" style="enable-background:new 0 0 200 200;" xml:space="preserve">
<style type="text/css">
	.st0{fill:#FFFFFF;}
</style>
<path class="st0" d="M29.87,81.23c0.28-0.73,0.66-1.72,1.19-3.03c5.66-14,15.26-26.46,27.43-35.32c0.86-1.26,5.83-4.43,8.13-5.96
	c-5.99,3.05-10.93,6.4-15.55,10.61c1.88-1.77,3.83-3.47,5.87-5.05c-3.8,2.87-7.43,6.2-10.76,9.93c1.01-1.1,2.03-2.14,3.05-3.14
	c-1.04,1.03-2.05,2.08-3.06,3.14c-6.56,7.36-11.98,16.2-15.33,25.81C30.45,79.5,30.12,80.5,29.87,81.23z"/>
<path class="st0" d="M106.03,148.05c3.55-0.03,7.23-0.59,10.91-1.48c2.82-0.86,5.57-1.89,8.28-3.01
	C118.93,145.78,112.5,147.26,106.03,148.05z"/>
<path class="st0" d="M60.35,41.61c-0.62,0.42-1.25,0.83-1.86,1.27l-0.06,0.1C59.07,42.5,59.71,42.06,60.35,41.61z"/>
<path class="st0" d="M149.55,128.24c-0.49,0.59-0.98,1.18-1.47,1.77l0.66-0.59C149,129.01,149.41,128.48,149.55,128.24z"/>
<path class="st0" d="M32.45,105.18C32.23,115.86,32.47,120.66,32.45,105.18L32.45,105.18z"/>
<path class="st0" d="M46.17,52.43L46.17,52.43L46.17,52.43C46.18,52.42,46.18,52.43,46.17,52.43z"/>
<path class="st0" d="M32.45,105.18c0.25-14.46,5-28.6,13.2-40.03c-4.73,5.93-8.64,13.15-10.9,21.07
	C33.28,92.43,32.21,98.8,32.45,105.18z"/>
<path class="st0" d="M163.72,112.15c0.51-0.96,0.99-1.95,1.37-2.96C164.62,110.14,164.19,111.16,163.72,112.15z"/>
<path class="st0" d="M36.91,139c-4.27-9.1-6.58-18.87-7.06-28.54c-0.2-1.29-0.39-2.55-0.44-3.83
	C28.79,117.62,32.11,129.23,36.91,139z"/>
<path class="st0" d="M100,0C44.77,0,0,44.77,0,100s44.77,100,100,100s100-44.77,100-100S155.23,0,100,0z M121.06,41.56v0.08
	l4.21-20.5l4,20.86c0.05,0.23,0.67,2.76,3.62,3.38l0,0l20.21,4.23l-20.78,4.06c-2.6,0.82-3.13,3.22-3.13,3.22l-0.01-0.15
	l-4.28,20.86l-3.92-20.41v0.02c-0.61-3.13-3.35-3.69-3.35-3.69l0,0l-20.47-4.28l20.53-4.02h-0.03
	C117.68,45.22,120.42,44.67,121.06,41.56z M123.57,126.98c-0.81,0.47-1.68,0.86-2.59,1.25c-0.44,0.22-0.7,0.7-0.89,0.88
	c-0.64,0.15-1.26,0.31-1.92,0.46c-0.66,0.15-1.35,0.31-2.07,0.52c-0.19,0.16-0.64,0.35-1.04,0.65c-0.31-0.04-0.63-0.06-0.95-0.05
	C117.26,129.67,120.42,128.45,123.57,126.98z M76.52,46.25c5.46-3.77,20.17-7.16,27.15-5.11l-3.19,0.19
	C92.43,41.41,84.25,43.02,76.52,46.25z M94.07,167.69c-21.45-1.86-41.12-16.49-50.58-31.2c-2.18-3.21-6.84-13.02-7.76-19.61
	c-2.59-11.47-2.07-23.62,1.07-35.02c7.27-24.25,28.88-42.63,55.22-46.59c5.36-0.56,12.42,0.42-0.17,2.18
	c-7.19,1.53-14.16,4.11-20.64,7.65c4.2-2.22,8.57-3.91,13.21-5.2c-2.36,0.81-4.78,1.54-6.81,2.39c10.95-4.03,22.61-4.96,33.86-3.32
	c-15.96-1.65-33.16,2.46-46.82,12.35c-13.71,9.74-23.28,25.24-25.64,41.22c2.22-8.7,6.08-20.32,11.71-26.01
	c-8.6,11.75-12.94,26.64-12.2,41.67c0.44,3.8,1.04,7.78,2.16,12.49c-0.35-2.6-0.97-6.31-1.18-10.04c-0.5-4.87-0.5-9.82,0.22-14.62
	c-0.87,7.45-0.27,14.96,1.69,21.39c-1.75-9.87-1.58-20.43,1.31-30.04c4.72-18.17,18.33-34.06,35.84-40.54
	c-2.92,1.71-6.66,4.39-7.98,6.11c0.23,0.1,5.42-2.39,2.56-0.64c-9.97,6.89-16.04,13.44-17.19,18.55c-0.33,0.64,9.72-7.47,7.25-4.08
	c-2.12,2.59-5.94,7.3-8.61,13.21c-0.88,1.63-1.58,3.44-2.41,5.26c-0.11,0.22-0.12,0.67-0.15,1.21c-2.2,6.62-4.15,13.7-4.14,17.37
	c-0.08,1.37-0.17,2.72-0.03,4.08c-0.05,0.72,0.04,3.53,0.3,4.36c0.47,3.62,0.5,8.54,4.72,17.35c4.22,8.81,9.28,12.77,10.03,14.14
	c0.74,0.48,1.62,1.11,2.63,1.81c-0.58-0.49-1.19-1-1.75-1.35c0.09-0.18,0.18-0.37,0.11-0.65c1.08,1.2,2.34,2.21,3.51,3.33
	c4.5,3.19,11.76,6.87,17.25,8.31v-0.04c3.68,1.26,7.51,2.24,11.46,2.59l1.82,0.63c1-0.1,2.04-0.17,2.52-0.25
	c3.17,0.33,5.86,0.21,8.61,0.25c0.48-0.14,1.33-0.75,2.35-0.94l1.82-0.63c0.28,0.09,0.39,0.25,0.5,0.42
	c1.12-0.61,2.89-0.76,3.86-1.35c-0.18,0.14-0.27,0.26-0.21,0.34c3.3-1.64,4.15-1.31,7.15-2.71c0.66-0.34,1.2-0.82,1.83-1.19
	l0.96-0.51c3.64-1.19,6.65-3.58,9.76-6.39c3.23-2.67,6.33-5.63,8.86-9.04c2.16-2.61,3.08-3.58,4.63-5.45
	c-4.48,9.23-13.35,17.04-21.27,22.77c10.83-4.84,20.53-18.33,22.54-19.18c2.95-0.33-9.05,14.3-17.27,19.18
	c1.1-0.62,1.1-0.62,2.2-1.24c-1.13,0.59-2.16,1.3-3.01,2.02c2.25-1.13,6.38-3.84,7.7-4.5l-1.43,1.86
	c6.11-3.04,14.24-12.9,18.2-18.65C145.14,160.14,115.52,169.56,94.07,167.69z M71.19,136.05c-0.65-0.3-1.32-0.58-1.96-0.89
	l-1.9-1.02c-1.61-0.92-3.01-2.12-4.44-3.21c-1.31-1.25-2.33-2.72-3.35-4.12c4.48,4.47,9.99,7.96,15.95,10.55l-2.34-0.42
	L71.19,136.05z M71.26,137.18c-2.02-0.87-2.95-0.88-4.78-2.08c-0.88-0.66-2.83-2-3.67-2.67s-1.43-1.95-2.16-2.68
	C63.57,132.73,67.26,135.22,71.26,137.18z M53.25,84.85l-0.04-0.01c2.43-7.35,8.57-15.94,12.35-19.61c1.22-0.83,2.72-1.57,4.16-2.58
	C62.44,69.73,56.73,76.05,53.25,84.85z M159.26,98.99c-0.31,1.16-0.61,2.31-0.91,3.46c-0.37,1.14-0.74,2.31-1.19,3.41
	c-0.88,2.24-1.94,4.36-3.11,6.37c-5.03,9.09-10.25,16.01-17.43,21.93c-2.1,1.74-6.63,4.36-8.94,5.57c-2.31,1.2-8.58,4.29-14.22,6.08
	c-5.33,1.74-10.86,2.59-16.6,2.71c-2.87,0.06-5.81-0.09-8.86-0.49c-0.54-0.07-1.06-0.16-1.59-0.26c-0.15,0-0.28,0-0.44,0.01
	c-1.38,0.01-3.32-0.47-6.11-1.33c-0.27-0.06-0.52-0.12-0.79-0.18c-0.36-0.1-0.72-0.25-1.06-0.4c-3.44-1.16-7.73-3.19-8.65-3.56
	c-2.27-1.05-4.44-2.25-6.51-3.59c-0.16-0.1-0.32-0.21-0.47-0.32c-0.58-0.39-1.16-0.78-1.72-1.2c-0.65-0.49-1.31-0.99-1.94-1.51
	c0.62,0.53,1.28,1.02,1.94,1.51c0.57,0.42,1.13,0.82,1.72,1.2c0.15,0.1,0.32,0.21,0.47,0.32c0.71,0.46,1.43,0.9,2.17,1.31
	c-0.42-0.25-0.82-0.51-1.23-0.77c-0.94-0.64-1.91-1.18-2.75-1.96c-0.87-0.73-1.72-1.49-2.58-2.26c-0.79-0.88-1.59-1.79-2.4-2.75
	c0.69,0.4,1.53,1.22,2.33,1.96c0.79,0.75,1.65,1.25,2.1,1.28c4.52,3.66,9.58,6.3,14.8,8.24c0.43,0.15,0.87,0.31,1.3,0.46
	c0.44-0.12,1.41-0.05,3.16,0.35c1.22,0.17,2.43,0.35,3.63,0.55c1.22,0.14,2.43,0.27,3.65,0.4c2.46,0.25,4.97,0.37,7.4,0.36
	c0.02-0.01,0.03-0.02,0.04-0.03c-1.92,0.01-3.77-0.05-5.62-0.27c-0.94-0.09-1.83-0.23-2.72-0.39c-0.89-0.15-1.8-0.29-2.71-0.46
	c1.15,0.16,2.32,0.25,3.32,0.5c-5.27-1.2-10.36-2.77-15.18-5.04c3.59,1.16,7.25,2.25,11.04,2.92l1.42,0.28l1.43,0.21
	c0.96,0.13,1.9,0.3,2.88,0.4c1.96,0.21,3.92,0.32,5.87,0.33c7.77,0.04,15.43-1.29,22.32-3.78c-4.08,0.58-9.18,2.79-12.88,2.34
	c6.59-0.94,13.09-2.6,19.47-5.12c0.77-0.41,1.57-0.82,2.42-1.25c0.86-0.41,1.78-0.84,2.77-1.31c-1.19,0.3-2.8,0.89-4.41,1.49
	c-2.06,0.87-4.15,1.69-6.26,2.35c3.23-1.15,6.27-2.68,8.87-4.37c-4.27,1.77-8.7,3.44-13.17,4.53c-4.12,1.29-8.38,2.16-12.69,2.59
	c-4.3,0.43-8.7,0.37-12.97-0.46c0.02,0,0.03-0.01,0.05-0.01c-4.05-0.66-8.16-1.37-11.86-3.33c0.49,0.09,0.96,0.24,1.46,0.33
	c1.73,0.65,7.15,1.93,11.16,2.19c-0.13-0.02-0.25-0.03-0.38-0.06c0.64,0.04,1.28,0.08,1.92,0.1c0.98-0.02,1.81-0.12,2.37-0.36
	c-0.05-0.33-2.71-0.61-1.14-0.71c2.84-0.28,8.87-2.39,0.83-4.15c-2.55-0.56-5.75-1.16-9.26-2.45c-9.4-3.45-13.13-7.36-13.68-7.93
	c0.77,0.6,6.97,4.36,11.3,5.93c0.2,0.07,0.35,0.12,0.48,0.17c1.85,0.6,6.85,2.1,11.98,2.91c1.31,0.15,2.75,0.27,4.26,0.32
	c4.04-0.09,8.15-0.69,12.26-1.65c0.09-0.06,0.2-0.15,0.32-0.24c3.24-0.92,6.25-2,7.94-2.55c0.64-0.18,1.25-0.43,1.86-0.64
	c0.35-0.04,0.68-0.03,0.95,0.03c0.33-0.27,0.66-0.55,1-0.78c1.62-0.64,3.19-1.38,4.72-2.17c0.91-0.33,1.82-0.65,2.7-1.06
	c-0.08-0.09-0.29-0.14-0.2-0.33c1.86-1.08,3.62-2.29,5.32-3.58c0.76-0.43,1.54-0.73,2.27-0.97c0.17-0.36,0.43-0.74,0.74-1.13
	c-0.22,0.2-0.44,0.4-0.56,0.64c-0.13-0.11-0.26-0.21-0.43-0.24c0.62-0.46,1.26-0.9,1.86-1.4l0.01-0.01
	c0.53-0.58,1.14-1.19,1.76-1.82c1.49-1.44,3.01-3.09,4.1-4.57l-0.03-0.02c1.11-1.45,2.2-2.95,3.15-4.53
	c0.24-0.21,0.49-0.4,0.75-0.57c0.09-0.48,0.3-0.91,0.33-1.15c0.81-1.21,1.51-2.27,2.22-3.32c0-0.25-0.16-0.77-0.01-1.22
	c0.4-0.86,0.64-1.79,0.88-2.71c0.33-1.05,0.75-2.1,1.03-3.18c1-3.62,1.63-7.22,1.79-10.81c0.12-0.12,0.28-0.15,0.44-0.2
	c-0.27-0.54-0.18-1.33-0.34-1.81c0.06,0.09,0.14,0.14,0.22,0.11c-0.21-0.81-0.23-1.29-0.27-1.75c-0.01-0.47,0.03-0.93-0.05-1.67
	c-0.06-0.33-0.29-0.59-0.45-0.88l-0.1-0.47c0.09-0.89,0.02-1.77-0.33-2.56c-0.3-0.81-0.67-1.61-1.13-2.42
	c-0.66-1.75-1.59-3.4-2.65-4.96c-0.86-1.21-0.96-1.92-1.52-2.84c1.73,1.32,3.25,3.36,4.44,5.45c1.19,2.12,2.22,4.29,3.26,6.32
	c-0.47-2.63-1.66-5.63-2.94-7.95c-1.24-2.36-2.48-4.1-2.28-4.95c0.17-0.83,1.73,0.5,3.23,2.73c1.52,2.22,2.81,5.3,3.61,7.39
	c-0.09-0.61-0.09-0.61-0.17-1.22c0.09,0.62,0.17,1.22,0.54,1.65c-0.09-0.6-0.28-1.48-0.45-2.31c-0.15-0.83-0.39-1.58-0.33-2.01
	l0.82,0.82c-0.23-1.67-1.06-3.92-2.29-6.01c-0.28-0.54-0.61-1.06-0.94-1.55c-0.32-0.52-0.65-1.01-1-1.49
	c-0.33-0.48-0.67-0.94-1-1.39c-0.15-0.22-0.33-0.45-0.51-0.67l-0.25-0.33c-0.08-0.1-0.24-0.27-0.35-0.4
	c0.37,0.33,0.52,0.53,0.73,0.77c0.21,0.24,0.37,0.46,0.56,0.7c0.37,0.46,0.69,0.92,1,1.37c0.33,0.46,0.63,0.93,0.93,1.41
	c0.3,0.47,0.61,0.94,0.88,1.44c1.17,1.92,2.07,4.02,2.96,6.15c1.65,4.32,2.59,9.04,2.76,13.85
	C161.1,89.51,160.35,94.34,159.26,98.99z"/>
<path class="st0" d="M102.19,140.8c1.82-0.12,3.66-0.39,5.45-0.83C105.71,140.25,103.78,140.47,102.19,140.8z"/>
<path class="st0" d="M140.49,139.07c-3.99,2.29-8.07,4.2-12.18,5.81c-0.52,0.29-1.03,0.58-1.53,0.9
	C131.64,144.49,136.21,141.61,140.49,139.07z"/>
<path class="st0" d="M149.21,129.58c3.83-2.7,6.76-6.88,10.45-10.76c1-1.01,2-2.65,2.97-4.46c0.39-0.42,0.47-0.71,0.5-1
	c0.2-0.4,0.4-0.8,0.6-1.2l-0.59,1.07c0.02-0.31,0.02-0.65,0.32-1.17c-3.75,6.49-8.95,12.27-14.71,17.37
	C148.43,129.91,148.33,130.22,149.21,129.58z"/>
<path class="st0" d="M107.91,139.92c-0.02,0.01-0.03,0.01-0.05,0.02c0.04-0.01,0.08-0.02,0.12-0.03
	C107.95,139.92,107.93,139.92,107.91,139.92z"/>
<path class="st0" d="M90.24,154.77c3.68,0.52,6.81,0.63,10.23,0.38c0.55-0.05,1.1-0.09,1.65-0.15c-0.56,0.06-1.11,0.11-1.65,0.15
	c-1.45,0.13-2.9,0.23-4.37,0.27c6.33-0.15,13.02-1.05,19.38-2.94c1.31-0.35,2.64-0.27,4.08-0.44c1.44-0.13,2.97-0.53,4.6-1.72
	c-9.36,2.66-19.21,3.96-29.22,4c-0.33,0.26-1.18,0.3-2.11,0.32C91.92,154.66,90.9,154.61,90.24,154.77z"/>
<path class="st0" d="M138.3,137.61l0.97-0.63c0.86-0.5,1.69-1.03,2.52-1.59c0.84-0.54,1.66-1.1,2.46-1.7
	c1.44-1.07,2.68-2.37,3.84-3.69c-0.93,0.83-1.91,1.6-2.85,2.4c-0.99,0.75-1.94,1.56-2.95,2.29c0.57-0.49,1.03-1.03,1.4-1.54
	c-2.87,2.05-5.84,3.97-8.92,5.71c-3.09,1.72-6.28,3.29-9.55,4.69c4.64-1.64,9.2-3.71,13.55-6.29L138.3,137.61z"/>
</svg>
