<?xml version="1.0" encoding="utf-8"?>
<!-- Generator: Adobe Illustrator 24.2.3, SVG Export Plug-In . SVG Version: 6.00 Build 0)  -->
<svg version="1.1" id="Layer_1" xmlns="http://www.w3.org/2000/svg" xmlns:xlink="http://www.w3.org/1999/xlink" x="0px" y="0px"
	 viewBox="0 0 60 60" style="enable-background:new 0 0 60 60;" xml:space="preserve">
<style type="text/css">
	.st0{fill:#FFFFFF;}
</style>
<g>
	<g>
		<g>
			<g>
				<g>
					<path class="st0" d="M30,1.1c16,0,28.9,13,28.9,28.9S46,58.9,30,58.9S1.1,46,1.1,30S14,1.1,30,1.1 M30,0C13.5,0,0,13.5,0,30
						s13.5,30,30,30s30-13.5,30-30S46.5,0,30,0L30,0z"/>
				</g>
				<g>
					<g>
						<polygon class="st0" points="37.2,18.4 39.7,20.8 36.1,24.1 32.5,20.7 35.3,18.1 30,13.2 24.7,18.1 27.5,20.7 23.9,24.1 
							20.3,20.8 22.8,18.4 14.5,14.5 15.6,25.4 44.4,25.4 45.5,14.5 						"/>
						<polygon class="st0" points="15.7,27.1 16.1,30.5 26.9,30.5 26.9,42.8 21.1,40.1 23.4,37.9 16.5,34.6 17.2,42.4 30,48.5 
							42.8,42.4 43.5,34.6 36.6,37.9 38.9,40.1 33.1,42.8 33.1,30.5 43.9,30.5 44.3,27.1 						"/>
					</g>
				</g>
			</g>
		</g>
	</g>
</g>
<g>
	<path class="st0" d="M55.3,52.8c1.4,0,2.4,1.1,2.4,2.5c0,1.4-1,2.5-2.4,2.5c-1.4,0-2.4-1.1-2.4-2.5C52.8,53.8,53.8,52.8,55.3,52.8z
		 M55.3,57.6c1.3,0,2.2-1.1,2.2-2.3c0-1.3-0.9-2.3-2.2-2.3c-1.3,0-2.2,1-2.2,2.3C53,56.5,53.9,57.6,55.3,57.6z M54.4,54h1.1
		c0.5,0,0.8,0.3,0.8,0.7c0,0.4-0.2,0.7-0.6,0.7l0.7,1h-0.2l-0.7-1h-0.8v1h-0.2V54z M54.6,54.2v1.1h0.9c0.4,0,0.6-0.2,0.6-0.6
		c0-0.3-0.2-0.5-0.6-0.5H54.6z"/>
</g>
</svg>
